<svg width="59" height="50" viewBox="0 0 59 50" fill="none" xmlns="http://www.w3.org/2000/svg">
<g clip-path="url(#clip0_19_9)">
<path d="M29.5 0C21.4944 0 20.4878 0.03125 17.3423 0.15C14.1969 0.275 12.0544 0.69375 10.1775 1.3125C8.2078 1.93852 6.42415 2.92312 4.95231 4.19688C3.44928 5.44419 2.28745 6.95576 1.54875 8.625C0.818625 10.2125 0.320812 12.0312 0.177 14.6875C0.036875 17.3594 0 18.2094 0 25.0031C0 31.7906 0.036875 32.6406 0.177 35.3063C0.3245 37.9688 0.818625 39.7844 1.54875 41.375C2.30469 43.0187 3.31138 44.4125 4.95231 45.8031C6.58956 47.1937 8.23419 48.05 10.1738 48.6875C12.0544 49.3063 14.1932 49.7281 17.3349 49.85C20.4841 49.9688 21.4871 50 29.5 50C37.5129 50 38.5123 49.9688 41.6614 49.85C44.7994 49.725 46.9492 49.3063 48.8262 48.6875C50.7946 48.0611 52.5769 47.0765 54.0477 45.8031C55.6886 44.4125 56.6953 43.0187 57.4512 41.375C58.1777 39.7844 58.6755 37.9688 58.823 35.3063C58.9631 32.6406 59 31.7906 59 25C59 18.2094 58.9631 17.3594 58.823 14.6906C58.6755 12.0313 58.1777 10.2125 57.4512 8.625C56.7125 6.95576 55.5507 5.44419 54.0477 4.19688C52.5759 2.92312 50.7922 1.93852 48.8225 1.3125C46.9419 0.69375 44.7957 0.271875 41.6577 0.15C38.5086 0.03125 37.5093 0 29.4926 0H29.5ZM26.8561 4.50625H29.5037C37.3802 4.50625 38.3131 4.52813 41.4217 4.65C44.2979 4.75938 45.8614 5.16875 46.9013 5.50938C48.2767 5.9625 49.2613 6.50625 50.2938 7.38125C51.3263 8.25625 51.9643 9.0875 52.4989 10.2563C52.9046 11.1344 53.3839 12.4594 53.513 14.8969C53.6568 17.5312 53.6863 18.3219 53.6863 24.9937C53.6863 31.6656 53.6568 32.4594 53.513 35.0938C53.3839 37.5312 52.9009 38.8531 52.4989 39.7344C52.0226 40.8184 51.2682 41.7993 50.2901 42.6063C49.2576 43.4813 48.2768 44.0219 46.8976 44.475C45.8651 44.8188 44.3016 45.225 41.4217 45.3375C38.3131 45.4563 37.3802 45.4844 29.5037 45.4844C21.6272 45.4844 20.6906 45.4563 17.582 45.3375C14.7058 45.225 13.1459 44.8188 12.1061 44.475C10.8259 44.0727 9.66714 43.4344 8.71356 42.6063C7.7337 41.7988 6.97796 40.8167 6.50106 39.7313C6.09912 38.8531 5.61606 37.5281 5.487 35.0906C5.34688 32.4562 5.31738 31.6656 5.31738 24.9875C5.31738 18.3094 5.34688 17.525 5.487 14.8906C5.61975 12.4531 6.09913 11.1281 6.50475 10.2469C7.03944 9.08125 7.68106 8.24687 8.71356 7.37187C9.74606 6.49687 10.7269 5.95625 12.1061 5.50313C13.1459 5.15938 14.7058 4.75313 17.582 4.64062C20.3034 4.53438 21.358 4.50313 26.8561 4.5V4.50625ZM45.2493 8.65625C44.7844 8.65625 44.3241 8.73385 43.8946 8.88461C43.4651 9.03538 43.0749 9.25635 42.7462 9.53493C42.4174 9.81351 42.1567 10.1442 41.9788 10.5082C41.8009 10.8722 41.7093 11.2623 41.7093 11.6562C41.7093 12.0502 41.8009 12.4403 41.9788 12.8043C42.1567 13.1683 42.4174 13.499 42.7462 13.7776C43.0749 14.0561 43.4651 14.2771 43.8946 14.4279C44.3241 14.5787 44.7844 14.6562 45.2493 14.6562C46.1882 14.6562 47.0886 14.3402 47.7525 13.7776C48.4163 13.215 48.7893 12.4519 48.7893 11.6562C48.7893 10.8606 48.4163 10.0975 47.7525 9.53493C47.0886 8.97232 46.1882 8.65625 45.2493 8.65625ZM29.5037 12.1625C27.4943 12.1359 25.4987 12.4484 23.6331 13.0817C21.7675 13.715 20.0693 14.6565 18.6372 15.8513C17.2051 17.0462 16.0678 18.4705 15.2915 20.0414C14.5152 21.6124 14.1154 23.2985 14.1154 25.0016C14.1154 26.7047 14.5152 28.3908 15.2915 29.9617C16.0678 31.5326 17.2051 32.957 18.6372 34.1518C20.0693 35.3467 21.7675 36.2881 23.6331 36.9214C25.4987 37.5547 27.4943 37.8672 29.5037 37.8406C33.4808 37.788 37.274 36.4122 40.0646 34.0102C42.8552 31.6081 44.4193 28.3724 44.4193 25.0016C44.4193 21.6307 42.8552 18.395 40.0646 15.993C37.274 13.5909 33.4808 12.2151 29.5037 12.1625ZM29.5037 16.6656C30.7952 16.6656 32.074 16.8812 33.2672 17.3C34.4604 17.7189 35.5446 18.3328 36.4578 19.1067C37.371 19.8806 38.0954 20.7994 38.5896 21.8106C39.0839 22.8217 39.3382 23.9055 39.3382 25C39.3382 26.0945 39.0839 27.1783 38.5896 28.1894C38.0954 29.2006 37.371 30.1194 36.4578 30.8933C35.5446 31.6672 34.4604 32.2811 33.2672 32.7C32.074 33.1188 30.7952 33.3344 29.5037 33.3344C26.8954 33.3344 24.3939 32.4563 22.5496 30.8933C20.7053 29.3303 19.6691 27.2104 19.6691 25C19.6691 22.7896 20.7053 20.6697 22.5496 19.1067C24.3939 17.5437 26.8954 16.6656 29.5037 16.6656Z" fill="black"/>
</g>
<defs>
<clipPath id="clip0_19_9">
<rect width="59" height="50" fill="white"/>
</clipPath>
</defs>
</svg>
